<svg width="600" height="600" viewBox="0 0 100 100" xmlns="http://www.w3.org/2000/svg">
  <rect width="100" height="100" fill="#F965B3"/>

  <g fill="#1A1A1A">
    <rect x="28" y="10" width="2" height="2"/>
    <rect x="32" y="10" width="2" height="2"/>
    <path d="M36 10 L38 12 L40 10 Z"/>
    <rect x="42" y="10" width="2" height="4"/>
    <rect x="46" y="10" width="2" height="2"/>
    <rect x="50" y="10" width="2" height="2"/>
    <path d="M54 12 L56 10 L58 12 Z"/>
    <rect x="62" y="10" width="2" height="2"/>
    <rect x="66" y="10" width="2" height="2"/>

    <rect x="80" y="20" width="2" height="4"/>
    <rect x="80" y="26" width="2" height="2"/>
    <rect x="80" y="30" width="2" height="6"/>
    <rect x="80" y="38" width="2" height="2"/>

    <rect x="20" y="88" width="4" height="2"/>
    <rect x="26" y="88" width="2" height="2"/>
    <rect x="30" y="88" width="6" height="2"/>
    <rect x="38" y="88" width="2" height="2"/>

    <circle cx="70" cy="80" r="1"/>
    <circle cx="74" cy="80" r="1"/>
    <rect x="78" y="79" width="4" height="2"/>
  </g>

  <g>
    <path fill="#1A1A1A" d="M50 15 L20 35 L20 65 L50 85 L80 65 L80 35 Z M50 25 L70 40 L70 60 L50 75 L30 60 L30 40 Z"/>

    <path fill="#FFFFFF" d="M38 28 L50 40 L45 42 L38 35 Z"/>
    <path fill="#DD4C92" d="M38 28 L38 35 L45 42 L42 41 Z"/>
    <path fill="#FFFFFF" d="M62 28 L50 40 L55 42 L62 35 Z"/>
    <path fill="#DD4C92" d="M62 28 L62 35 L55 42 L58 41 Z"/>

    <path fill="#FFFFFF" d="M25 45 L38 50 L38 58 L30 55 Z"/>
    <path fill="#DD4C92" d="M25 45 L30 48 L30 55 L25 52 Z"/>

     <path fill="#FFFFFF" d="M42 48 L50 55 L50 65 L42 60 Z"/>
    <path fill="#FFFFFF" d="M58 48 L50 55 L50 65 L58 60 Z"/>
    <path fill="#DD4C92" d="M42 48 L44 49 L44 61 L42 60 Z"/>
    <path fill="#DD4C92" d="M58 48 L56 49 L56 61 L58 60 Z"/>

    <path fill="#FFFFFF" d="M75 45 L62 50 L62 58 L70 55 Z"/>
    <path fill="#DD4C92" d="M75 45 L70 48 L70 55 L75 52 Z"/>
  </g>

  <text x="70" y="88" font-family="monospace" font-size="6" fill="#1A1A1A">CODING <</text>
</svg>